<svg width="52" height="31" viewBox="0 0 52 31" fill="none" xmlns="http://www.w3.org/2000/svg">
<path d="M15.0916 3.48505L4.15084 11.3468C1.85841 12.9941 1.33541 16.1878 2.98269 18.4803L2.98869 18.4886C4.63597 20.781 7.82974 21.304 10.1222 19.6568L21.0629 11.795C23.3554 10.1477 23.8784 6.95398 22.2311 4.66155L22.2251 4.6532C20.5778 2.36077 17.3841 1.83777 15.0916 3.48505Z" fill="#EA4335" stroke="#1E1E1E" stroke-width="0.987296" stroke-miterlimit="10"/>
<path d="M2.98934 12.5162L2.98333 12.5245C1.33605 14.8169 1.85905 18.0107 4.15148 19.658L15.0923 27.5197C17.3847 29.167 20.5785 28.644 22.2257 26.3516L22.2317 26.3432C23.879 24.0508 23.356 20.857 21.0636 19.2098L10.1228 11.348C7.83038 9.70073 4.63661 10.2237 2.98934 12.5162Z" fill="#4285F4" stroke="#1E1E1E" stroke-width="0.987296" stroke-miterlimit="10"/>
<path d="M41.5044 11.3412L30.5636 19.203C28.2712 20.8503 27.7482 24.044 29.3955 26.3365L29.4015 26.3448C31.0488 28.6372 34.2425 29.1602 36.535 27.513L47.4757 19.6512C49.7682 18.0039 50.2912 14.8102 48.6439 12.5177L48.6379 12.5094C46.9906 10.217 43.7968 9.69395 41.5044 11.3412Z" fill="#F9AB00" stroke="#1E1E1E" stroke-width="0.987296" stroke-miterlimit="10"/>
<path d="M29.4006 4.65629L29.3946 4.66465C27.7473 6.95708 28.2703 10.1508 30.5627 11.7981L41.5035 19.6599C43.7959 21.3071 46.9897 20.7841 48.637 18.4917L48.643 18.4834C50.2902 16.1909 49.7672 12.9972 47.4748 11.3499L36.534 3.48814C34.2416 1.84086 31.0478 2.36386 29.4006 4.65629Z" fill="#34A853" stroke="#1E1E1E" stroke-width="0.987296" stroke-miterlimit="10"/>
</svg>
